<?xml version="1.0" encoding="UTF-8" standalone="yes"?>
<!DOCTYPE svg PUBLIC "-//W3C//DTD SVG 1.0//EN" "http://www.w3.org/TR/2001/REC-SVG-20010904/DTD/svg10.dtd">
<svg width="410" height="410" xmlns="http://www.w3.org/2000/svg" xmlns:xlink="http://www.w3.org/1999/xlink">
<g id="quickmark" fill="black" transform="translate(40,40)">
<rect x="0" y="0" width="10" height="10"/>
<rect x="10" y="0" width="10" height="10"/>
<rect x="20" y="0" width="10" height="10"/>
<rect x="30" y="0" width="10" height="10"/>
<rect x="40" y="0" width="10" height="10"/>
<rect x="50" y="0" width="10" height="10"/>
<rect x="60" y="0" width="10" height="10"/>
<rect x="90" y="0" width="10" height="10"/>
<rect x="100" y="0" width="10" height="10"/>
<rect x="110" y="0" width="10" height="10"/>
<rect x="130" y="0" width="10" height="10"/>
<rect x="160" y="0" width="10" height="10"/>
<rect x="180" y="0" width="10" height="10"/>
<rect x="190" y="0" width="10" height="10"/>
<rect x="200" y="0" width="10" height="10"/>
<rect x="210" y="0" width="10" height="10"/>
<rect x="230" y="0" width="10" height="10"/>
<rect x="260" y="0" width="10" height="10"/>
<rect x="270" y="0" width="10" height="10"/>
<rect x="280" y="0" width="10" height="10"/>
<rect x="290" y="0" width="10" height="10"/>
<rect x="300" y="0" width="10" height="10"/>
<rect x="310" y="0" width="10" height="10"/>
<rect x="320" y="0" width="10" height="10"/>
<rect x="0" y="10" width="10" height="10"/>
<rect x="60" y="10" width="10" height="10"/>
<rect x="120" y="10" width="10" height="10"/>
<rect x="130" y="10" width="10" height="10"/>
<rect x="140" y="10" width="10" height="10"/>
<rect x="150" y="10" width="10" height="10"/>
<rect x="170" y="10" width="10" height="10"/>
<rect x="180" y="10" width="10" height="10"/>
<rect x="220" y="10" width="10" height="10"/>
<rect x="240" y="10" width="10" height="10"/>
<rect x="260" y="10" width="10" height="10"/>
<rect x="320" y="10" width="10" height="10"/>
<rect x="0" y="20" width="10" height="10"/>
<rect x="20" y="20" width="10" height="10"/>
<rect x="30" y="20" width="10" height="10"/>
<rect x="40" y="20" width="10" height="10"/>
<rect x="60" y="20" width="10" height="10"/>
<rect x="80" y="20" width="10" height="10"/>
<rect x="90" y="20" width="10" height="10"/>
<rect x="110" y="20" width="10" height="10"/>
<rect x="120" y="20" width="10" height="10"/>
<rect x="130" y="20" width="10" height="10"/>
<rect x="150" y="20" width="10" height="10"/>
<rect x="160" y="20" width="10" height="10"/>
<rect x="190" y="20" width="10" height="10"/>
<rect x="200" y="20" width="10" height="10"/>
<rect x="210" y="20" width="10" height="10"/>
<rect x="220" y="20" width="10" height="10"/>
<rect x="230" y="20" width="10" height="10"/>
<rect x="260" y="20" width="10" height="10"/>
<rect x="280" y="20" width="10" height="10"/>
<rect x="290" y="20" width="10" height="10"/>
<rect x="300" y="20" width="10" height="10"/>
<rect x="320" y="20" width="10" height="10"/>
<rect x="0" y="30" width="10" height="10"/>
<rect x="20" y="30" width="10" height="10"/>
<rect x="30" y="30" width="10" height="10"/>
<rect x="40" y="30" width="10" height="10"/>
<rect x="60" y="30" width="10" height="10"/>
<rect x="80" y="30" width="10" height="10"/>
<rect x="140" y="30" width="10" height="10"/>
<rect x="150" y="30" width="10" height="10"/>
<rect x="160" y="30" width="10" height="10"/>
<rect x="170" y="30" width="10" height="10"/>
<rect x="190" y="30" width="10" height="10"/>
<rect x="210" y="30" width="10" height="10"/>
<rect x="220" y="30" width="10" height="10"/>
<rect x="230" y="30" width="10" height="10"/>
<rect x="260" y="30" width="10" height="10"/>
<rect x="280" y="30" width="10" height="10"/>
<rect x="290" y="30" width="10" height="10"/>
<rect x="300" y="30" width="10" height="10"/>
<rect x="320" y="30" width="10" height="10"/>
<rect x="0" y="40" width="10" height="10"/>
<rect x="20" y="40" width="10" height="10"/>
<rect x="30" y="40" width="10" height="10"/>
<rect x="40" y="40" width="10" height="10"/>
<rect x="60" y="40" width="10" height="10"/>
<rect x="80" y="40" width="10" height="10"/>
<rect x="90" y="40" width="10" height="10"/>
<rect x="110" y="40" width="10" height="10"/>
<rect x="150" y="40" width="10" height="10"/>
<rect x="180" y="40" width="10" height="10"/>
<rect x="200" y="40" width="10" height="10"/>
<rect x="210" y="40" width="10" height="10"/>
<rect x="260" y="40" width="10" height="10"/>
<rect x="280" y="40" width="10" height="10"/>
<rect x="290" y="40" width="10" height="10"/>
<rect x="300" y="40" width="10" height="10"/>
<rect x="320" y="40" width="10" height="10"/>
<rect x="0" y="50" width="10" height="10"/>
<rect x="60" y="50" width="10" height="10"/>
<rect x="80" y="50" width="10" height="10"/>
<rect x="90" y="50" width="10" height="10"/>
<rect x="100" y="50" width="10" height="10"/>
<rect x="110" y="50" width="10" height="10"/>
<rect x="120" y="50" width="10" height="10"/>
<rect x="140" y="50" width="10" height="10"/>
<rect x="150" y="50" width="10" height="10"/>
<rect x="160" y="50" width="10" height="10"/>
<rect x="240" y="50" width="10" height="10"/>
<rect x="260" y="50" width="10" height="10"/>
<rect x="320" y="50" width="10" height="10"/>
<rect x="0" y="60" width="10" height="10"/>
<rect x="10" y="60" width="10" height="10"/>
<rect x="20" y="60" width="10" height="10"/>
<rect x="30" y="60" width="10" height="10"/>
<rect x="40" y="60" width="10" height="10"/>
<rect x="50" y="60" width="10" height="10"/>
<rect x="60" y="60" width="10" height="10"/>
<rect x="80" y="60" width="10" height="10"/>
<rect x="100" y="60" width="10" height="10"/>
<rect x="120" y="60" width="10" height="10"/>
<rect x="140" y="60" width="10" height="10"/>
<rect x="160" y="60" width="10" height="10"/>
<rect x="180" y="60" width="10" height="10"/>
<rect x="200" y="60" width="10" height="10"/>
<rect x="220" y="60" width="10" height="10"/>
<rect x="240" y="60" width="10" height="10"/>
<rect x="260" y="60" width="10" height="10"/>
<rect x="270" y="60" width="10" height="10"/>
<rect x="280" y="60" width="10" height="10"/>
<rect x="290" y="60" width="10" height="10"/>
<rect x="300" y="60" width="10" height="10"/>
<rect x="310" y="60" width="10" height="10"/>
<rect x="320" y="60" width="10" height="10"/>
<rect x="80" y="70" width="10" height="10"/>
<rect x="100" y="70" width="10" height="10"/>
<rect x="120" y="70" width="10" height="10"/>
<rect x="140" y="70" width="10" height="10"/>
<rect x="150" y="70" width="10" height="10"/>
<rect x="190" y="70" width="10" height="10"/>
<rect x="210" y="70" width="10" height="10"/>
<rect x="220" y="70" width="10" height="10"/>
<rect x="0" y="80" width="10" height="10"/>
<rect x="20" y="80" width="10" height="10"/>
<rect x="30" y="80" width="10" height="10"/>
<rect x="40" y="80" width="10" height="10"/>
<rect x="50" y="80" width="10" height="10"/>
<rect x="60" y="80" width="10" height="10"/>
<rect x="120" y="80" width="10" height="10"/>
<rect x="130" y="80" width="10" height="10"/>
<rect x="140" y="80" width="10" height="10"/>
<rect x="150" y="80" width="10" height="10"/>
<rect x="170" y="80" width="10" height="10"/>
<rect x="220" y="80" width="10" height="10"/>
<rect x="240" y="80" width="10" height="10"/>
<rect x="260" y="80" width="10" height="10"/>
<rect x="270" y="80" width="10" height="10"/>
<rect x="280" y="80" width="10" height="10"/>
<rect x="290" y="80" width="10" height="10"/>
<rect x="300" y="80" width="10" height="10"/>
<rect x="10" y="90" width="10" height="10"/>
<rect x="40" y="90" width="10" height="10"/>
<rect x="50" y="90" width="10" height="10"/>
<rect x="70" y="90" width="10" height="10"/>
<rect x="80" y="90" width="10" height="10"/>
<rect x="90" y="90" width="10" height="10"/>
<rect x="160" y="90" width="10" height="10"/>
<rect x="170" y="90" width="10" height="10"/>
<rect x="180" y="90" width="10" height="10"/>
<rect x="190" y="90" width="10" height="10"/>
<rect x="220" y="90" width="10" height="10"/>
<rect x="230" y="90" width="10" height="10"/>
<rect x="240" y="90" width="10" height="10"/>
<rect x="260" y="90" width="10" height="10"/>
<rect x="290" y="90" width="10" height="10"/>
<rect x="300" y="90" width="10" height="10"/>
<rect x="320" y="90" width="10" height="10"/>
<rect x="0" y="100" width="10" height="10"/>
<rect x="10" y="100" width="10" height="10"/>
<rect x="50" y="100" width="10" height="10"/>
<rect x="60" y="100" width="10" height="10"/>
<rect x="70" y="100" width="10" height="10"/>
<rect x="90" y="100" width="10" height="10"/>
<rect x="110" y="100" width="10" height="10"/>
<rect x="120" y="100" width="10" height="10"/>
<rect x="150" y="100" width="10" height="10"/>
<rect x="160" y="100" width="10" height="10"/>
<rect x="170" y="100" width="10" height="10"/>
<rect x="200" y="100" width="10" height="10"/>
<rect x="210" y="100" width="10" height="10"/>
<rect x="220" y="100" width="10" height="10"/>
<rect x="250" y="100" width="10" height="10"/>
<rect x="260" y="100" width="10" height="10"/>
<rect x="280" y="100" width="10" height="10"/>
<rect x="300" y="100" width="10" height="10"/>
<rect x="310" y="100" width="10" height="10"/>
<rect x="0" y="110" width="10" height="10"/>
<rect x="10" y="110" width="10" height="10"/>
<rect x="30" y="110" width="10" height="10"/>
<rect x="40" y="110" width="10" height="10"/>
<rect x="80" y="110" width="10" height="10"/>
<rect x="90" y="110" width="10" height="10"/>
<rect x="100" y="110" width="10" height="10"/>
<rect x="120" y="110" width="10" height="10"/>
<rect x="140" y="110" width="10" height="10"/>
<rect x="160" y="110" width="10" height="10"/>
<rect x="200" y="110" width="10" height="10"/>
<rect x="210" y="110" width="10" height="10"/>
<rect x="220" y="110" width="10" height="10"/>
<rect x="250" y="110" width="10" height="10"/>
<rect x="260" y="110" width="10" height="10"/>
<rect x="280" y="110" width="10" height="10"/>
<rect x="290" y="110" width="10" height="10"/>
<rect x="300" y="110" width="10" height="10"/>
<rect x="310" y="110" width="10" height="10"/>
<rect x="10" y="120" width="10" height="10"/>
<rect x="20" y="120" width="10" height="10"/>
<rect x="30" y="120" width="10" height="10"/>
<rect x="40" y="120" width="10" height="10"/>
<rect x="60" y="120" width="10" height="10"/>
<rect x="100" y="120" width="10" height="10"/>
<rect x="110" y="120" width="10" height="10"/>
<rect x="120" y="120" width="10" height="10"/>
<rect x="170" y="120" width="10" height="10"/>
<rect x="220" y="120" width="10" height="10"/>
<rect x="230" y="120" width="10" height="10"/>
<rect x="270" y="120" width="10" height="10"/>
<rect x="280" y="120" width="10" height="10"/>
<rect x="290" y="120" width="10" height="10"/>
<rect x="0" y="130" width="10" height="10"/>
<rect x="50" y="130" width="10" height="10"/>
<rect x="90" y="130" width="10" height="10"/>
<rect x="100" y="130" width="10" height="10"/>
<rect x="120" y="130" width="10" height="10"/>
<rect x="140" y="130" width="10" height="10"/>
<rect x="150" y="130" width="10" height="10"/>
<rect x="160" y="130" width="10" height="10"/>
<rect x="180" y="130" width="10" height="10"/>
<rect x="190" y="130" width="10" height="10"/>
<rect x="200" y="130" width="10" height="10"/>
<rect x="210" y="130" width="10" height="10"/>
<rect x="250" y="130" width="10" height="10"/>
<rect x="260" y="130" width="10" height="10"/>
<rect x="270" y="130" width="10" height="10"/>
<rect x="290" y="130" width="10" height="10"/>
<rect x="310" y="130" width="10" height="10"/>
<rect x="320" y="130" width="10" height="10"/>
<rect x="20" y="140" width="10" height="10"/>
<rect x="30" y="140" width="10" height="10"/>
<rect x="60" y="140" width="10" height="10"/>
<rect x="70" y="140" width="10" height="10"/>
<rect x="80" y="140" width="10" height="10"/>
<rect x="90" y="140" width="10" height="10"/>
<rect x="200" y="140" width="10" height="10"/>
<rect x="250" y="140" width="10" height="10"/>
<rect x="270" y="140" width="10" height="10"/>
<rect x="310" y="140" width="10" height="10"/>
<rect x="0" y="150" width="10" height="10"/>
<rect x="10" y="150" width="10" height="10"/>
<rect x="30" y="150" width="10" height="10"/>
<rect x="70" y="150" width="10" height="10"/>
<rect x="80" y="150" width="10" height="10"/>
<rect x="100" y="150" width="10" height="10"/>
<rect x="120" y="150" width="10" height="10"/>
<rect x="130" y="150" width="10" height="10"/>
<rect x="160" y="150" width="10" height="10"/>
<rect x="180" y="150" width="10" height="10"/>
<rect x="200" y="150" width="10" height="10"/>
<rect x="210" y="150" width="10" height="10"/>
<rect x="220" y="150" width="10" height="10"/>
<rect x="230" y="150" width="10" height="10"/>
<rect x="240" y="150" width="10" height="10"/>
<rect x="260" y="150" width="10" height="10"/>
<rect x="300" y="150" width="10" height="10"/>
<rect x="20" y="160" width="10" height="10"/>
<rect x="60" y="160" width="10" height="10"/>
<rect x="70" y="160" width="10" height="10"/>
<rect x="80" y="160" width="10" height="10"/>
<rect x="90" y="160" width="10" height="10"/>
<rect x="110" y="160" width="10" height="10"/>
<rect x="120" y="160" width="10" height="10"/>
<rect x="140" y="160" width="10" height="10"/>
<rect x="170" y="160" width="10" height="10"/>
<rect x="200" y="160" width="10" height="10"/>
<rect x="220" y="160" width="10" height="10"/>
<rect x="240" y="160" width="10" height="10"/>
<rect x="250" y="160" width="10" height="10"/>
<rect x="270" y="160" width="10" height="10"/>
<rect x="280" y="160" width="10" height="10"/>
<rect x="320" y="160" width="10" height="10"/>
<rect x="20" y="170" width="10" height="10"/>
<rect x="30" y="170" width="10" height="10"/>
<rect x="50" y="170" width="10" height="10"/>
<rect x="80" y="170" width="10" height="10"/>
<rect x="90" y="170" width="10" height="10"/>
<rect x="170" y="170" width="10" height="10"/>
<rect x="190" y="170" width="10" height="10"/>
<rect x="200" y="170" width="10" height="10"/>
<rect x="230" y="170" width="10" height="10"/>
<rect x="260" y="170" width="10" height="10"/>
<rect x="270" y="170" width="10" height="10"/>
<rect x="290" y="170" width="10" height="10"/>
<rect x="300" y="170" width="10" height="10"/>
<rect x="320" y="170" width="10" height="10"/>
<rect x="0" y="180" width="10" height="10"/>
<rect x="20" y="180" width="10" height="10"/>
<rect x="60" y="180" width="10" height="10"/>
<rect x="80" y="180" width="10" height="10"/>
<rect x="90" y="180" width="10" height="10"/>
<rect x="100" y="180" width="10" height="10"/>
<rect x="140" y="180" width="10" height="10"/>
<rect x="150" y="180" width="10" height="10"/>
<rect x="160" y="180" width="10" height="10"/>
<rect x="170" y="180" width="10" height="10"/>
<rect x="210" y="180" width="10" height="10"/>
<rect x="280" y="180" width="10" height="10"/>
<rect x="300" y="180" width="10" height="10"/>
<rect x="310" y="180" width="10" height="10"/>
<rect x="0" y="190" width="10" height="10"/>
<rect x="20" y="190" width="10" height="10"/>
<rect x="30" y="190" width="10" height="10"/>
<rect x="40" y="190" width="10" height="10"/>
<rect x="50" y="190" width="10" height="10"/>
<rect x="70" y="190" width="10" height="10"/>
<rect x="100" y="190" width="10" height="10"/>
<rect x="110" y="190" width="10" height="10"/>
<rect x="120" y="190" width="10" height="10"/>
<rect x="160" y="190" width="10" height="10"/>
<rect x="180" y="190" width="10" height="10"/>
<rect x="190" y="190" width="10" height="10"/>
<rect x="210" y="190" width="10" height="10"/>
<rect x="220" y="190" width="10" height="10"/>
<rect x="260" y="190" width="10" height="10"/>
<rect x="280" y="190" width="10" height="10"/>
<rect x="290" y="190" width="10" height="10"/>
<rect x="300" y="190" width="10" height="10"/>
<rect x="310" y="190" width="10" height="10"/>
<rect x="0" y="200" width="10" height="10"/>
<rect x="10" y="200" width="10" height="10"/>
<rect x="20" y="200" width="10" height="10"/>
<rect x="40" y="200" width="10" height="10"/>
<rect x="60" y="200" width="10" height="10"/>
<rect x="70" y="200" width="10" height="10"/>
<rect x="80" y="200" width="10" height="10"/>
<rect x="100" y="200" width="10" height="10"/>
<rect x="110" y="200" width="10" height="10"/>
<rect x="120" y="200" width="10" height="10"/>
<rect x="130" y="200" width="10" height="10"/>
<rect x="140" y="200" width="10" height="10"/>
<rect x="150" y="200" width="10" height="10"/>
<rect x="160" y="200" width="10" height="10"/>
<rect x="170" y="200" width="10" height="10"/>
<rect x="190" y="200" width="10" height="10"/>
<rect x="220" y="200" width="10" height="10"/>
<rect x="280" y="200" width="10" height="10"/>
<rect x="290" y="200" width="10" height="10"/>
<rect x="320" y="200" width="10" height="10"/>
<rect x="40" y="210" width="10" height="10"/>
<rect x="50" y="210" width="10" height="10"/>
<rect x="70" y="210" width="10" height="10"/>
<rect x="90" y="210" width="10" height="10"/>
<rect x="140" y="210" width="10" height="10"/>
<rect x="150" y="210" width="10" height="10"/>
<rect x="180" y="210" width="10" height="10"/>
<rect x="190" y="210" width="10" height="10"/>
<rect x="200" y="210" width="10" height="10"/>
<rect x="210" y="210" width="10" height="10"/>
<rect x="230" y="210" width="10" height="10"/>
<rect x="240" y="210" width="10" height="10"/>
<rect x="250" y="210" width="10" height="10"/>
<rect x="260" y="210" width="10" height="10"/>
<rect x="270" y="210" width="10" height="10"/>
<rect x="290" y="210" width="10" height="10"/>
<rect x="320" y="210" width="10" height="10"/>
<rect x="10" y="220" width="10" height="10"/>
<rect x="30" y="220" width="10" height="10"/>
<rect x="40" y="220" width="10" height="10"/>
<rect x="60" y="220" width="10" height="10"/>
<rect x="70" y="220" width="10" height="10"/>
<rect x="80" y="220" width="10" height="10"/>
<rect x="110" y="220" width="10" height="10"/>
<rect x="140" y="220" width="10" height="10"/>
<rect x="150" y="220" width="10" height="10"/>
<rect x="160" y="220" width="10" height="10"/>
<rect x="210" y="220" width="10" height="10"/>
<rect x="220" y="220" width="10" height="10"/>
<rect x="250" y="220" width="10" height="10"/>
<rect x="260" y="220" width="10" height="10"/>
<rect x="270" y="220" width="10" height="10"/>
<rect x="290" y="220" width="10" height="10"/>
<rect x="300" y="220" width="10" height="10"/>
<rect x="310" y="220" width="10" height="10"/>
<rect x="10" y="230" width="10" height="10"/>
<rect x="20" y="230" width="10" height="10"/>
<rect x="30" y="230" width="10" height="10"/>
<rect x="40" y="230" width="10" height="10"/>
<rect x="100" y="230" width="10" height="10"/>
<rect x="140" y="230" width="10" height="10"/>
<rect x="150" y="230" width="10" height="10"/>
<rect x="200" y="230" width="10" height="10"/>
<rect x="210" y="230" width="10" height="10"/>
<rect x="220" y="230" width="10" height="10"/>
<rect x="240" y="230" width="10" height="10"/>
<rect x="250" y="230" width="10" height="10"/>
<rect x="260" y="230" width="10" height="10"/>
<rect x="270" y="230" width="10" height="10"/>
<rect x="280" y="230" width="10" height="10"/>
<rect x="290" y="230" width="10" height="10"/>
<rect x="300" y="230" width="10" height="10"/>
<rect x="10" y="240" width="10" height="10"/>
<rect x="30" y="240" width="10" height="10"/>
<rect x="50" y="240" width="10" height="10"/>
<rect x="60" y="240" width="10" height="10"/>
<rect x="70" y="240" width="10" height="10"/>
<rect x="80" y="240" width="10" height="10"/>
<rect x="90" y="240" width="10" height="10"/>
<rect x="100" y="240" width="10" height="10"/>
<rect x="110" y="240" width="10" height="10"/>
<rect x="130" y="240" width="10" height="10"/>
<rect x="150" y="240" width="10" height="10"/>
<rect x="160" y="240" width="10" height="10"/>
<rect x="170" y="240" width="10" height="10"/>
<rect x="180" y="240" width="10" height="10"/>
<rect x="200" y="240" width="10" height="10"/>
<rect x="240" y="240" width="10" height="10"/>
<rect x="250" y="240" width="10" height="10"/>
<rect x="260" y="240" width="10" height="10"/>
<rect x="270" y="240" width="10" height="10"/>
<rect x="280" y="240" width="10" height="10"/>
<rect x="290" y="240" width="10" height="10"/>
<rect x="320" y="240" width="10" height="10"/>
<rect x="80" y="250" width="10" height="10"/>
<rect x="90" y="250" width="10" height="10"/>
<rect x="120" y="250" width="10" height="10"/>
<rect x="160" y="250" width="10" height="10"/>
<rect x="180" y="250" width="10" height="10"/>
<rect x="190" y="250" width="10" height="10"/>
<rect x="200" y="250" width="10" height="10"/>
<rect x="230" y="250" width="10" height="10"/>
<rect x="240" y="250" width="10" height="10"/>
<rect x="280" y="250" width="10" height="10"/>
<rect x="300" y="250" width="10" height="10"/>
<rect x="320" y="250" width="10" height="10"/>
<rect x="0" y="260" width="10" height="10"/>
<rect x="10" y="260" width="10" height="10"/>
<rect x="20" y="260" width="10" height="10"/>
<rect x="30" y="260" width="10" height="10"/>
<rect x="40" y="260" width="10" height="10"/>
<rect x="50" y="260" width="10" height="10"/>
<rect x="60" y="260" width="10" height="10"/>
<rect x="90" y="260" width="10" height="10"/>
<rect x="100" y="260" width="10" height="10"/>
<rect x="130" y="260" width="10" height="10"/>
<rect x="150" y="260" width="10" height="10"/>
<rect x="170" y="260" width="10" height="10"/>
<rect x="200" y="260" width="10" height="10"/>
<rect x="220" y="260" width="10" height="10"/>
<rect x="230" y="260" width="10" height="10"/>
<rect x="240" y="260" width="10" height="10"/>
<rect x="260" y="260" width="10" height="10"/>
<rect x="280" y="260" width="10" height="10"/>
<rect x="300" y="260" width="10" height="10"/>
<rect x="310" y="260" width="10" height="10"/>
<rect x="0" y="270" width="10" height="10"/>
<rect x="60" y="270" width="10" height="10"/>
<rect x="80" y="270" width="10" height="10"/>
<rect x="90" y="270" width="10" height="10"/>
<rect x="110" y="270" width="10" height="10"/>
<rect x="140" y="270" width="10" height="10"/>
<rect x="150" y="270" width="10" height="10"/>
<rect x="160" y="270" width="10" height="10"/>
<rect x="180" y="270" width="10" height="10"/>
<rect x="210" y="270" width="10" height="10"/>
<rect x="230" y="270" width="10" height="10"/>
<rect x="240" y="270" width="10" height="10"/>
<rect x="280" y="270" width="10" height="10"/>
<rect x="300" y="270" width="10" height="10"/>
<rect x="320" y="270" width="10" height="10"/>
<rect x="0" y="280" width="10" height="10"/>
<rect x="20" y="280" width="10" height="10"/>
<rect x="30" y="280" width="10" height="10"/>
<rect x="40" y="280" width="10" height="10"/>
<rect x="60" y="280" width="10" height="10"/>
<rect x="80" y="280" width="10" height="10"/>
<rect x="90" y="280" width="10" height="10"/>
<rect x="120" y="280" width="10" height="10"/>
<rect x="130" y="280" width="10" height="10"/>
<rect x="150" y="280" width="10" height="10"/>
<rect x="180" y="280" width="10" height="10"/>
<rect x="190" y="280" width="10" height="10"/>
<rect x="220" y="280" width="10" height="10"/>
<rect x="240" y="280" width="10" height="10"/>
<rect x="250" y="280" width="10" height="10"/>
<rect x="260" y="280" width="10" height="10"/>
<rect x="270" y="280" width="10" height="10"/>
<rect x="280" y="280" width="10" height="10"/>
<rect x="290" y="280" width="10" height="10"/>
<rect x="0" y="290" width="10" height="10"/>
<rect x="20" y="290" width="10" height="10"/>
<rect x="30" y="290" width="10" height="10"/>
<rect x="40" y="290" width="10" height="10"/>
<rect x="60" y="290" width="10" height="10"/>
<rect x="80" y="290" width="10" height="10"/>
<rect x="100" y="290" width="10" height="10"/>
<rect x="120" y="290" width="10" height="10"/>
<rect x="130" y="290" width="10" height="10"/>
<rect x="140" y="290" width="10" height="10"/>
<rect x="150" y="290" width="10" height="10"/>
<rect x="160" y="290" width="10" height="10"/>
<rect x="170" y="290" width="10" height="10"/>
<rect x="180" y="290" width="10" height="10"/>
<rect x="200" y="290" width="10" height="10"/>
<rect x="250" y="290" width="10" height="10"/>
<rect x="270" y="290" width="10" height="10"/>
<rect x="280" y="290" width="10" height="10"/>
<rect x="300" y="290" width="10" height="10"/>
<rect x="310" y="290" width="10" height="10"/>
<rect x="320" y="290" width="10" height="10"/>
<rect x="0" y="300" width="10" height="10"/>
<rect x="20" y="300" width="10" height="10"/>
<rect x="30" y="300" width="10" height="10"/>
<rect x="40" y="300" width="10" height="10"/>
<rect x="60" y="300" width="10" height="10"/>
<rect x="80" y="300" width="10" height="10"/>
<rect x="110" y="300" width="10" height="10"/>
<rect x="120" y="300" width="10" height="10"/>
<rect x="140" y="300" width="10" height="10"/>
<rect x="170" y="300" width="10" height="10"/>
<rect x="200" y="300" width="10" height="10"/>
<rect x="220" y="300" width="10" height="10"/>
<rect x="240" y="300" width="10" height="10"/>
<rect x="250" y="300" width="10" height="10"/>
<rect x="260" y="300" width="10" height="10"/>
<rect x="270" y="300" width="10" height="10"/>
<rect x="290" y="300" width="10" height="10"/>
<rect x="0" y="310" width="10" height="10"/>
<rect x="60" y="310" width="10" height="10"/>
<rect x="90" y="310" width="10" height="10"/>
<rect x="140" y="310" width="10" height="10"/>
<rect x="160" y="310" width="10" height="10"/>
<rect x="180" y="310" width="10" height="10"/>
<rect x="210" y="310" width="10" height="10"/>
<rect x="230" y="310" width="10" height="10"/>
<rect x="270" y="310" width="10" height="10"/>
<rect x="280" y="310" width="10" height="10"/>
<rect x="290" y="310" width="10" height="10"/>
<rect x="300" y="310" width="10" height="10"/>
<rect x="0" y="320" width="10" height="10"/>
<rect x="10" y="320" width="10" height="10"/>
<rect x="20" y="320" width="10" height="10"/>
<rect x="30" y="320" width="10" height="10"/>
<rect x="40" y="320" width="10" height="10"/>
<rect x="50" y="320" width="10" height="10"/>
<rect x="60" y="320" width="10" height="10"/>
<rect x="80" y="320" width="10" height="10"/>
<rect x="90" y="320" width="10" height="10"/>
<rect x="120" y="320" width="10" height="10"/>
<rect x="160" y="320" width="10" height="10"/>
<rect x="170" y="320" width="10" height="10"/>
<rect x="190" y="320" width="10" height="10"/>
<rect x="200" y="320" width="10" height="10"/>
<rect x="220" y="320" width="10" height="10"/>
<rect x="240" y="320" width="10" height="10"/>
<rect x="270" y="320" width="10" height="10"/>
<rect x="280" y="320" width="10" height="10"/>
<rect x="310" y="320" width="10" height="10"/>
</g></svg>